<svg xmlns="http://www.w3.org/2000/svg" viewBox="0 0 1024 1024">
  <!-- Fond de base - plus foncé pour les zones plus basses -->
  <rect width="1024" height="1024" fill="#222222"/>
  
  <!-- Filtres pour créer des textures organiques -->
  <filter id="noiseFilter">
    <feTurbulence type="fractalNoise" baseFrequency="0.08" numOctaves="5" seed="3" stitchTiles="stitch"/>
    <feColorMatrix type="matrix" values="1 0 0 0 0 0 1 0 0 0 0 0 1 0 0 0 0 0 1 0"/>
  </filter>
  
  <filter id="smallNoiseFilter">
    <feTurbulence type="fractalNoise" baseFrequency="0.15" numOctaves="3" seed="5" stitchTiles="stitch"/>
    <feColorMatrix type="matrix" values="0.5 0 0 0 0 0 0.5 0 0 0 0 0 0.5 0 0 0 0 0 1 0"/>
  </filter>
  
  <filter id="creviceFilter">
    <feTurbulence type="turbulence" baseFrequency="0.05" numOctaves="4" seed="10" stitchTiles="stitch"/>
    <feColorMatrix type="matrix" values="0 0 0 0 0 0 0 0 0 0 0 0 0 0 0 0 0 0 0.6 0"/>
    <feComposite operator="in" in2="SourceGraphic"/>
  </filter>
  
  <!-- Texture de base pour le sable -->
  <rect width="1024" height="1024" fill="#ffffff" filter="url(#noiseFilter)"/>
  
  <!-- Ajout de petites variations de hauteur -->
  <rect width="1024" height="1024" fill="#cccccc" opacity="0.6" filter="url(#smallNoiseFilter)"/>
  
  <!-- Création des crevasses principales -->
  <g filter="url(#creviceFilter)">
    <!-- Crevasse 1 - diagonale -->
    <path d="M100,100 C300,250 500,400 750,800" stroke="#000000" stroke-width="15" fill="none"/>
    
    <!-- Crevasse 2 - sinueuse -->
    <path d="M250,900 C350,800 300,600 450,500 C600,400 700,450 850,300" stroke="#000000" stroke-width="20" fill="none"/>
    
    <!-- Crevasse 3 - courbe -->
    <path d="M900,150 C800,200 650,350 600,550" stroke="#000000" stroke-width="12" fill="none"/>
    
    <!-- Petites crevasses additionnelles -->
    <path d="M150,400 C200,450 250,500 300,520" stroke="#000000" stroke-width="8" fill="none"/>
    <path d="M700,700 C750,650 800,600 820,550" stroke="#000000" stroke-width="10" fill="none"/>
    <path d="M400,200 C450,250 500,300 550,320" stroke="#000000" stroke-width="6" fill="none"/>
    <path d="M800,850 C850,800 900,750 950,700" stroke="#000000" stroke-width="9" fill="none"/>
    
    <!-- Crevasses supplémentaires -->
    <line x1="100" y1="800" x2="300" y2="750" stroke="#000000" stroke-width="7" />
    <line x1="500" y1="150" x2="600" y2="250" stroke="#000000" stroke-width="10" />
    <line x1="350" y1="350" x2="450" y2="400" stroke="#000000" stroke-width="8" />
  </g>
  
  <!-- Ajout de motifs de dunes -->
  <g opacity="0.3">
    <ellipse cx="200" cy="200" rx="150" ry="70" fill="#ffffff" transform="rotate(30, 200, 200)"/>
    <ellipse cx="600" cy="400" rx="180" ry="90" fill="#ffffff" transform="rotate(-15, 600, 400)"/>
    <ellipse cx="300" cy="700" rx="120" ry="60" fill="#ffffff" transform="rotate(10, 300, 700)"/>
    <ellipse cx="800" cy="600" rx="160" ry="80" fill="#ffffff" transform="rotate(-25, 800, 600)"/>
  </g>
</svg>
